<svg xmlns="http://www.w3.org/2000/svg" viewBox="0 0 1440 300" fill="none">
<defs><linearGradient id="rib" x2="1" y2="1"><stop stop-color="#9b9ef7"/><stop offset=".5" stop-color="#3d409b"/><stop offset="1" stop-color="#9b9ef7"/></linearGradient></defs>
<path d="M-60 200 C120 310 170 50 345 110 S540 220 720 155 S970 40 1100 120 S1300 280 1500 95" stroke="#d6d8ff" stroke-width="46" stroke-linecap="round"/>
<path d="M-60 190 C120 300 170 40 345 100 S540 210 720 145 S970 30 1100 110 S1300 270 1500 85" stroke="url(#rib)" stroke-width="18" stroke-linecap="round"/>
<path d="M-60 183 C120 293 170 33 345 93 S540 203 720 138 S970 23 1100 103 S1300 263 1500 78" stroke="#fffefc" stroke-width="3" opacity=".7"/>
<g stroke="#6f71c1" stroke-width="8" stroke-linecap="round"><path d="M160 188 L137 133"/><path d="M290 98 L283 39"/><path d="M440 133 L459 75"/><path d="M590 170 L584 112"/><path d="M850 99 L871 43"/><path d="M1000 78 L1017 22"/><path d="M1180 165 L1204 111"/><path d="M1330 179 L1321 120"/></g>
<g fill="#f2989f" stroke="#fffefc" stroke-width="5"><circle cx="137" cy="126" r="19"/><circle cx="283" cy="33" r="17"/><circle cx="459" cy="69" r="20"/><circle cx="584" cy="106" r="17"/><circle cx="871" cy="37" r="19"/><circle cx="1017" cy="18" r="15"/><circle cx="1204" cy="105" r="20"/><circle cx="1321" cy="114" r="17"/></g>
</svg>
